<svg width="100%" height="100%" id="svg" viewBox="0 0 1440 600" xmlns="http://www.w3.org/2000/svg" class="transition duration-300 ease-in-out delay-150"><defs><linearGradient id="gradient" x1="0%" y1="50%" x2="100%" y2="50%"><stop offset="5%" stop-color="#0ea5e966"></stop><stop offset="95%" stop-color="#14b8a666"></stop></linearGradient></defs><path d="M 0,600 C 0,600 0,150 0,150 C 61.53010235540758,171.25830558638552 123.06020471081516,192.516611172771 178,184 C 232.93979528918484,175.483388827229 281.289283512147,137.19186089530152 328,124 C 374.710716487853,110.80813910469848 419.7826612405969,122.71594524602293 471,137 C 522.2173387594031,151.28405475397707 579.5800715254654,167.94435812060675 629,157 C 678.4199284745346,146.05564187939325 719.8970526575412,107.50662227155014 772,113 C 824.1029473424588,118.49337772844986 886.8317178443704,168.02915279319274 956,181 C 1025.1682821556296,193.97084720680726 1100.7760759649773,170.3767665556789 1146,149 C 1191.2239240350227,127.62323344432112 1206.0639782957207,108.46378098409174 1250,109 C 1293.9360217042793,109.53621901590826 1366.9680108521397,129.76810950795414 1440,150 C 1440,150 1440,600 1440,600 Z" stroke="none" stroke-width="0" fill="url(#gradient)" class="transition-all duration-300 ease-in-out delay-150 path-0"></path><defs><linearGradient id="gradient" x1="0%" y1="50%" x2="100%" y2="50%"><stop offset="5%" stop-color="#0ea5e988"></stop><stop offset="95%" stop-color="#14b8a688"></stop></linearGradient></defs><path d="M 0,600 C 0,600 0,300 0,300 C 66.3593044765076,284.9174990751018 132.7186089530152,269.8349981502035 179,264 C 225.2813910469848,258.1650018497965 251.48486866444688,261.5775064742878 301,267 C 350.5151313355531,272.4224935257122 423.3419163891972,279.85497595264525 489,279 C 554.6580836108028,278.14502404735475 613.1474657787643,269.00258971513125 662,268 C 710.8525342212357,266.99741028486875 750.0682204957457,274.1346651868295 805,299 C 859.9317795042543,323.8653348131705 930.5796522382534,366.4587495375509 986,355 C 1041.4203477617466,343.5412504624491 1081.6131705512396,278.0303366629671 1134,255 C 1186.3868294487604,231.9696633370329 1250.9676655567885,251.41990381058082 1304,266 C 1357.0323344432115,280.5800961894192 1398.5161672216059,290.2900480947096 1440,300 C 1440,300 1440,600 1440,600 Z" stroke="none" stroke-width="0" fill="url(#gradient)" class="transition-all duration-300 ease-in-out delay-150 path-1"></path><defs><linearGradient id="gradient" x1="0%" y1="50%" x2="100%" y2="50%"><stop offset="5%" stop-color="#0ea5e9ff"></stop><stop offset="95%" stop-color="#14b8a6ff"></stop></linearGradient></defs><path d="M 0,600 C 0,600 0,450 0,450 C 60.8041928721174,450.8656554445678 121.6083857442348,451.7313108891355 171,446 C 220.3916142557652,440.2686891108645 258.3706498951782,427.94041188802566 316,435 C 373.6293501048218,442.05958811197434 450.9090146750525,468.50704155876184 504,472 C 557.0909853249475,475.49295844123816 585.9932914046121,456.03142187692686 626,436 C 666.0067085953879,415.96857812307314 717.117819706499,395.3672709335307 778,413 C 838.882180293501,430.6327290664693 909.5354297693921,486.49949438895055 967,492 C 1024.464570230608,497.50050561104945 1068.7404612159328,452.63475151066723 1125,449 C 1181.2595387840672,445.36524848933277 1249.5027253668763,482.9614995683808 1304,490 C 1358.4972746331237,497.0385004316192 1399.2486373165618,473.5192502158096 1440,450 C 1440,450 1440,600 1440,600 Z" stroke="none" stroke-width="0" fill="url(#gradient)" class="transition-all duration-300 ease-in-out delay-150 path-2"></path></svg>